<mxfile host="app.diagrams.net" modified="2023-03-26T02:37:46.962Z" agent="Mozilla/5.0 (Windows NT 10.0; Win64; x64) AppleWebKit/537.36 (KHTML, like Gecko) Chrome/111.0.0.0 Safari/537.36" etag="beCMQ3iukIn7jszI9wn0" version="21.1.1" type="device" pages="4">
  <diagram name="department entity" id="vR1riFmWHHXKqSf3M4-J">
    <mxGraphModel dx="1290" dy="602" grid="0" gridSize="10" guides="1" tooltips="1" connect="1" arrows="1" fold="1" page="0" pageScale="1" pageWidth="827" pageHeight="1169" math="0" shadow="0">
      <root>
        <mxCell id="0" />
        <mxCell id="1" parent="0" />
        <mxCell id="5hC7E_VcBdMca9a1Se1Z-1" value="&lt;div&gt;The company is organized into DEPARTMENTs. Each department has a name, number and an employee who manages the department. We keep track of the start date of the department manager. A department may have several locations.&lt;/div&gt;&lt;div&gt;&lt;br&gt;&lt;/div&gt;" style="text;html=1;strokeColor=none;fillColor=none;align=left;verticalAlign=middle;whiteSpace=wrap;rounded=0;" parent="1" vertex="1">
          <mxGeometry x="169" y="196" width="516" height="58" as="geometry" />
        </mxCell>
        <mxCell id="xKUtoP-qOpP5i_r4uGos-1" value="department" style="whiteSpace=wrap;html=1;align=center;" parent="1" vertex="1">
          <mxGeometry x="502" y="439" width="100" height="40" as="geometry" />
        </mxCell>
        <mxCell id="BtFRwxA6i7Aon4vkajZD-1" value="employee" style="whiteSpace=wrap;html=1;align=center;" parent="1" vertex="1">
          <mxGeometry x="248" y="439" width="100" height="40" as="geometry" />
        </mxCell>
        <mxCell id="BtFRwxA6i7Aon4vkajZD-2" value="manages" style="shape=rhombus;perimeter=rhombusPerimeter;whiteSpace=wrap;html=1;align=center;fontColor=#ff0000;" parent="1" vertex="1">
          <mxGeometry x="386" y="429" width="78" height="60" as="geometry" />
        </mxCell>
        <mxCell id="BtFRwxA6i7Aon4vkajZD-3" value="" style="endArrow=none;html=1;rounded=0;exitX=1;exitY=0.5;exitDx=0;exitDy=0;entryX=0;entryY=0.5;entryDx=0;entryDy=0;" parent="1" source="BtFRwxA6i7Aon4vkajZD-1" target="BtFRwxA6i7Aon4vkajZD-2" edge="1">
          <mxGeometry width="50" height="50" relative="1" as="geometry">
            <mxPoint x="348" y="424" as="sourcePoint" />
            <mxPoint x="498" y="374" as="targetPoint" />
          </mxGeometry>
        </mxCell>
        <mxCell id="BtFRwxA6i7Aon4vkajZD-4" value="" style="endArrow=none;html=1;rounded=0;exitX=0;exitY=0.5;exitDx=0;exitDy=0;entryX=1;entryY=0.5;entryDx=0;entryDy=0;" parent="1" edge="1">
          <mxGeometry width="50" height="50" relative="1" as="geometry">
            <mxPoint x="502" y="458" as="sourcePoint" />
            <mxPoint x="463.9999999999999" y="458" as="targetPoint" />
          </mxGeometry>
        </mxCell>
        <mxCell id="9cm1FBiWcGY4AMhlOk_x-52" value="department" style="whiteSpace=wrap;html=1;align=center;" parent="1" vertex="1">
          <mxGeometry x="375" y="266" width="100" height="40" as="geometry" />
        </mxCell>
        <mxCell id="9cm1FBiWcGY4AMhlOk_x-53" value="number" style="ellipse;whiteSpace=wrap;html=1;align=center;fontStyle=4;" parent="1" vertex="1">
          <mxGeometry x="185" y="356" width="80" height="40" as="geometry" />
        </mxCell>
        <mxCell id="9cm1FBiWcGY4AMhlOk_x-54" value="name" style="ellipse;whiteSpace=wrap;html=1;align=center;fontStyle=4;" parent="1" vertex="1">
          <mxGeometry x="285" y="356" width="60" height="40" as="geometry" />
        </mxCell>
        <mxCell id="9cm1FBiWcGY4AMhlOk_x-55" value="locations" style="ellipse;shape=doubleEllipse;margin=3;whiteSpace=wrap;html=1;align=center;" parent="1" vertex="1">
          <mxGeometry x="465" y="356" width="80" height="40" as="geometry" />
        </mxCell>
        <mxCell id="9cm1FBiWcGY4AMhlOk_x-56" value="manager_ssn" style="ellipse;whiteSpace=wrap;html=1;align=center;strokeColor=#2255ec;fontColor=#ff0000;" parent="1" vertex="1">
          <mxGeometry x="365" y="356" width="80" height="40" as="geometry" />
        </mxCell>
        <mxCell id="9cm1FBiWcGY4AMhlOk_x-57" value="manager_start_date" style="ellipse;whiteSpace=wrap;html=1;align=center;fontColor=#ff0000;strokeColor=#4128fb;" parent="1" vertex="1">
          <mxGeometry x="565" y="356" width="140" height="40" as="geometry" />
        </mxCell>
        <mxCell id="9cm1FBiWcGY4AMhlOk_x-58" value="" style="endArrow=none;html=1;rounded=0;exitX=0.5;exitY=0;exitDx=0;exitDy=0;entryX=0;entryY=1;entryDx=0;entryDy=0;" parent="1" source="9cm1FBiWcGY4AMhlOk_x-53" target="9cm1FBiWcGY4AMhlOk_x-52" edge="1">
          <mxGeometry width="50" height="50" relative="1" as="geometry">
            <mxPoint x="305" y="356" as="sourcePoint" />
            <mxPoint x="355" y="306" as="targetPoint" />
          </mxGeometry>
        </mxCell>
        <mxCell id="9cm1FBiWcGY4AMhlOk_x-59" value="" style="endArrow=none;html=1;rounded=0;exitX=0.5;exitY=0;exitDx=0;exitDy=0;entryX=0.25;entryY=1;entryDx=0;entryDy=0;" parent="1" source="9cm1FBiWcGY4AMhlOk_x-54" target="9cm1FBiWcGY4AMhlOk_x-52" edge="1">
          <mxGeometry width="50" height="50" relative="1" as="geometry">
            <mxPoint x="235" y="366" as="sourcePoint" />
            <mxPoint x="365" y="316" as="targetPoint" />
          </mxGeometry>
        </mxCell>
        <mxCell id="9cm1FBiWcGY4AMhlOk_x-60" value="" style="endArrow=none;html=1;rounded=0;exitX=0.5;exitY=0;exitDx=0;exitDy=0;entryX=0.5;entryY=1;entryDx=0;entryDy=0;" parent="1" source="9cm1FBiWcGY4AMhlOk_x-56" target="9cm1FBiWcGY4AMhlOk_x-52" edge="1">
          <mxGeometry width="50" height="50" relative="1" as="geometry">
            <mxPoint x="265" y="396" as="sourcePoint" />
            <mxPoint x="395" y="346" as="targetPoint" />
          </mxGeometry>
        </mxCell>
        <mxCell id="9cm1FBiWcGY4AMhlOk_x-61" value="" style="endArrow=none;html=1;rounded=0;exitX=0.5;exitY=0;exitDx=0;exitDy=0;entryX=0.75;entryY=1;entryDx=0;entryDy=0;" parent="1" source="9cm1FBiWcGY4AMhlOk_x-55" target="9cm1FBiWcGY4AMhlOk_x-52" edge="1">
          <mxGeometry width="50" height="50" relative="1" as="geometry">
            <mxPoint x="275" y="406" as="sourcePoint" />
            <mxPoint x="405" y="356" as="targetPoint" />
          </mxGeometry>
        </mxCell>
        <mxCell id="9cm1FBiWcGY4AMhlOk_x-62" value="" style="endArrow=none;html=1;rounded=0;exitX=1;exitY=1;exitDx=0;exitDy=0;entryX=0.5;entryY=0;entryDx=0;entryDy=0;" parent="1" source="9cm1FBiWcGY4AMhlOk_x-52" target="9cm1FBiWcGY4AMhlOk_x-57" edge="1">
          <mxGeometry width="50" height="50" relative="1" as="geometry">
            <mxPoint x="285" y="416" as="sourcePoint" />
            <mxPoint x="415" y="366" as="targetPoint" />
          </mxGeometry>
        </mxCell>
        <mxCell id="eemqVDHLAsSa_zQ52OHB-1" value="" style="endArrow=none;html=1;rounded=0;exitX=0;exitY=0.5;exitDx=0;exitDy=0;entryX=1;entryY=0.5;entryDx=0;entryDy=0;" parent="1" edge="1">
          <mxGeometry width="50" height="50" relative="1" as="geometry">
            <mxPoint x="502" y="460" as="sourcePoint" />
            <mxPoint x="464" y="460" as="targetPoint" />
          </mxGeometry>
        </mxCell>
        <mxCell id="eemqVDHLAsSa_zQ52OHB-2" value="&lt;div&gt;1&lt;/div&gt;" style="text;html=1;strokeColor=none;fillColor=none;align=left;verticalAlign=middle;whiteSpace=wrap;rounded=0;fontColor=#ff0000;" parent="1" vertex="1">
          <mxGeometry x="359" y="439" width="19" height="14" as="geometry" />
        </mxCell>
        <mxCell id="eemqVDHLAsSa_zQ52OHB-3" value="&lt;div&gt;1&lt;/div&gt;" style="text;html=1;strokeColor=none;fillColor=none;align=left;verticalAlign=middle;whiteSpace=wrap;rounded=0;fontColor=#ff0000;" parent="1" vertex="1">
          <mxGeometry x="476" y="439" width="13" height="16" as="geometry" />
        </mxCell>
        <mxCell id="E0avsjEsFe4b3-AcE04M-1" value="start_date" style="ellipse;whiteSpace=wrap;html=1;align=center;fontColor=#ff0000;strokeColor=#2b39f7;" parent="1" vertex="1">
          <mxGeometry x="429" y="514" width="90" height="40" as="geometry" />
        </mxCell>
        <mxCell id="E0avsjEsFe4b3-AcE04M-2" value="" style="endArrow=none;html=1;rounded=0;exitX=0.5;exitY=0;exitDx=0;exitDy=0;entryX=1;entryY=1;entryDx=0;entryDy=0;" parent="1" source="E0avsjEsFe4b3-AcE04M-1" target="BtFRwxA6i7Aon4vkajZD-2" edge="1">
          <mxGeometry width="50" height="50" relative="1" as="geometry">
            <mxPoint x="415" y="366" as="sourcePoint" />
            <mxPoint x="435" y="316" as="targetPoint" />
          </mxGeometry>
        </mxCell>
        <mxCell id="E0avsjEsFe4b3-AcE04M-3" value="department" style="whiteSpace=wrap;html=1;align=center;" parent="1" vertex="1">
          <mxGeometry x="383" y="595" width="100" height="40" as="geometry" />
        </mxCell>
        <mxCell id="E0avsjEsFe4b3-AcE04M-4" value="number" style="ellipse;whiteSpace=wrap;html=1;align=center;fontStyle=4;" parent="1" vertex="1">
          <mxGeometry x="304" y="667" width="80" height="40" as="geometry" />
        </mxCell>
        <mxCell id="E0avsjEsFe4b3-AcE04M-5" value="name" style="ellipse;whiteSpace=wrap;html=1;align=center;fontStyle=4;" parent="1" vertex="1">
          <mxGeometry x="403" y="664" width="60" height="40" as="geometry" />
        </mxCell>
        <mxCell id="E0avsjEsFe4b3-AcE04M-6" value="locations" style="ellipse;shape=doubleEllipse;margin=3;whiteSpace=wrap;html=1;align=center;" parent="1" vertex="1">
          <mxGeometry x="481" y="664" width="80" height="40" as="geometry" />
        </mxCell>
        <mxCell id="E0avsjEsFe4b3-AcE04M-7" value="manager_ssn" style="ellipse;whiteSpace=wrap;html=1;align=center;strokeColor=#2255ec;fontColor=#ff0000;" parent="1" vertex="1">
          <mxGeometry x="335" y="514" width="80" height="40" as="geometry" />
        </mxCell>
        <mxCell id="E0avsjEsFe4b3-AcE04M-9" value="" style="endArrow=none;html=1;rounded=0;exitX=0.5;exitY=0;exitDx=0;exitDy=0;entryX=0;entryY=1;entryDx=0;entryDy=0;" parent="1" source="E0avsjEsFe4b3-AcE04M-4" target="E0avsjEsFe4b3-AcE04M-3" edge="1">
          <mxGeometry width="50" height="50" relative="1" as="geometry">
            <mxPoint x="313" y="664" as="sourcePoint" />
            <mxPoint x="363" y="614" as="targetPoint" />
          </mxGeometry>
        </mxCell>
        <mxCell id="E0avsjEsFe4b3-AcE04M-11" value="" style="endArrow=none;html=1;rounded=0;exitX=0.5;exitY=0;exitDx=0;exitDy=0;entryX=0;entryY=1;entryDx=0;entryDy=0;" parent="1" source="E0avsjEsFe4b3-AcE04M-7" target="BtFRwxA6i7Aon4vkajZD-2" edge="1">
          <mxGeometry width="50" height="50" relative="1" as="geometry">
            <mxPoint x="267" y="704" as="sourcePoint" />
            <mxPoint x="453" y="616" as="targetPoint" />
          </mxGeometry>
        </mxCell>
        <mxCell id="E0avsjEsFe4b3-AcE04M-12" value="" style="endArrow=none;html=1;rounded=0;exitX=0.5;exitY=0;exitDx=0;exitDy=0;entryX=1;entryY=1;entryDx=0;entryDy=0;" parent="1" source="E0avsjEsFe4b3-AcE04M-6" target="E0avsjEsFe4b3-AcE04M-3" edge="1">
          <mxGeometry width="50" height="50" relative="1" as="geometry">
            <mxPoint x="283" y="714" as="sourcePoint" />
            <mxPoint x="413" y="664" as="targetPoint" />
          </mxGeometry>
        </mxCell>
        <mxCell id="E0avsjEsFe4b3-AcE04M-14" value="" style="endArrow=none;html=1;rounded=0;exitX=0.5;exitY=0;exitDx=0;exitDy=0;entryX=0.5;entryY=1;entryDx=0;entryDy=0;" parent="1" source="E0avsjEsFe4b3-AcE04M-5" target="E0avsjEsFe4b3-AcE04M-3" edge="1">
          <mxGeometry width="50" height="50" relative="1" as="geometry">
            <mxPoint x="575" y="674" as="sourcePoint" />
            <mxPoint x="493" y="624" as="targetPoint" />
          </mxGeometry>
        </mxCell>
      </root>
    </mxGraphModel>
  </diagram>
  <diagram id="a4o48mt1i-gstihOhsZx" name="project entity">
    <mxGraphModel dx="477" dy="274" grid="0" gridSize="10" guides="1" tooltips="1" connect="1" arrows="1" fold="1" page="0" pageScale="1" pageWidth="827" pageHeight="1169" math="0" shadow="0">
      <root>
        <mxCell id="0" />
        <mxCell id="1" parent="0" />
        <mxCell id="Bv9roeX_BVCFR0Rtixf7-1" value="&lt;div&gt;Each department controls a number of PROJECTs. Each project has a unique name, unique number and is located at a single location.&lt;/div&gt;&lt;div&gt;&lt;br&gt;&lt;/div&gt;" style="text;html=1;strokeColor=none;fillColor=none;align=left;verticalAlign=middle;whiteSpace=wrap;rounded=0;" parent="1" vertex="1">
          <mxGeometry x="206" y="348" width="423" height="70" as="geometry" />
        </mxCell>
        <mxCell id="TBZkQ93ppKMUNMIXcFfS-1" value="project" style="whiteSpace=wrap;html=1;align=center;" parent="1" vertex="1">
          <mxGeometry x="486" y="575" width="100" height="40" as="geometry" />
        </mxCell>
        <mxCell id="xuuxLBYL-FkFExQEdYXr-1" value="department" style="whiteSpace=wrap;html=1;align=center;" parent="1" vertex="1">
          <mxGeometry x="238" y="575" width="100" height="40" as="geometry" />
        </mxCell>
        <mxCell id="OpuRK4CgrRXLhYxJ5u82-1" value="manages" style="shape=rhombus;perimeter=rhombusPerimeter;whiteSpace=wrap;html=1;align=center;fontColor=#ff0000;" parent="1" vertex="1">
          <mxGeometry x="373" y="565" width="78" height="60" as="geometry" />
        </mxCell>
        <mxCell id="OpuRK4CgrRXLhYxJ5u82-2" value="" style="endArrow=none;html=1;rounded=0;exitX=1;exitY=0.5;exitDx=0;exitDy=0;entryX=0;entryY=0.5;entryDx=0;entryDy=0;" parent="1" edge="1">
          <mxGeometry width="50" height="50" relative="1" as="geometry">
            <mxPoint x="451" y="594" as="sourcePoint" />
            <mxPoint x="486" y="594" as="targetPoint" />
          </mxGeometry>
        </mxCell>
        <mxCell id="OpuRK4CgrRXLhYxJ5u82-3" value="" style="endArrow=none;html=1;rounded=0;entryX=0;entryY=0.5;entryDx=0;entryDy=0;" parent="1" source="xuuxLBYL-FkFExQEdYXr-1" target="OpuRK4CgrRXLhYxJ5u82-1" edge="1">
          <mxGeometry width="50" height="50" relative="1" as="geometry">
            <mxPoint x="257" y="494" as="sourcePoint" />
            <mxPoint x="428" y="428" as="targetPoint" />
          </mxGeometry>
        </mxCell>
        <mxCell id="OpuRK4CgrRXLhYxJ5u82-4" value="project" style="whiteSpace=wrap;html=1;align=center;" parent="1" vertex="1">
          <mxGeometry x="362" y="415" width="100" height="40" as="geometry" />
        </mxCell>
        <mxCell id="OpuRK4CgrRXLhYxJ5u82-5" value="number" style="ellipse;whiteSpace=wrap;html=1;align=center;fontStyle=4;" parent="1" vertex="1">
          <mxGeometry x="206" y="505" width="80" height="40" as="geometry" />
        </mxCell>
        <mxCell id="OpuRK4CgrRXLhYxJ5u82-6" value="name" style="ellipse;whiteSpace=wrap;html=1;align=center;fontStyle=4;" parent="1" vertex="1">
          <mxGeometry x="306" y="505" width="60" height="40" as="geometry" />
        </mxCell>
        <mxCell id="OpuRK4CgrRXLhYxJ5u82-7" value="location" style="ellipse;whiteSpace=wrap;html=1;align=center;" parent="1" vertex="1">
          <mxGeometry x="386" y="505" width="80" height="40" as="geometry" />
        </mxCell>
        <mxCell id="OpuRK4CgrRXLhYxJ5u82-8" value="department_number" style="ellipse;whiteSpace=wrap;html=1;align=center;strokeColor=#213af2;fontColor=#ff0000;" parent="1" vertex="1">
          <mxGeometry x="486" y="505" width="140" height="40" as="geometry" />
        </mxCell>
        <mxCell id="OpuRK4CgrRXLhYxJ5u82-9" value="" style="endArrow=none;html=1;rounded=0;exitX=0.5;exitY=0;exitDx=0;exitDy=0;entryX=0;entryY=1;entryDx=0;entryDy=0;" parent="1" source="OpuRK4CgrRXLhYxJ5u82-5" target="OpuRK4CgrRXLhYxJ5u82-4" edge="1">
          <mxGeometry width="50" height="50" relative="1" as="geometry">
            <mxPoint x="326" y="505" as="sourcePoint" />
            <mxPoint x="376" y="455" as="targetPoint" />
          </mxGeometry>
        </mxCell>
        <mxCell id="OpuRK4CgrRXLhYxJ5u82-10" value="" style="endArrow=none;html=1;rounded=0;exitX=0.5;exitY=0;exitDx=0;exitDy=0;entryX=0.25;entryY=1;entryDx=0;entryDy=0;" parent="1" source="OpuRK4CgrRXLhYxJ5u82-6" target="OpuRK4CgrRXLhYxJ5u82-4" edge="1">
          <mxGeometry width="50" height="50" relative="1" as="geometry">
            <mxPoint x="256" y="515" as="sourcePoint" />
            <mxPoint x="386" y="465" as="targetPoint" />
          </mxGeometry>
        </mxCell>
        <mxCell id="OpuRK4CgrRXLhYxJ5u82-11" value="" style="endArrow=none;html=1;rounded=0;exitX=0.5;exitY=0;exitDx=0;exitDy=0;entryX=0.5;entryY=1;entryDx=0;entryDy=0;" parent="1" source="OpuRK4CgrRXLhYxJ5u82-7" target="OpuRK4CgrRXLhYxJ5u82-4" edge="1">
          <mxGeometry width="50" height="50" relative="1" as="geometry">
            <mxPoint x="286" y="545" as="sourcePoint" />
            <mxPoint x="416" y="495" as="targetPoint" />
          </mxGeometry>
        </mxCell>
        <mxCell id="OpuRK4CgrRXLhYxJ5u82-12" value="" style="endArrow=none;html=1;rounded=0;exitX=1;exitY=1;exitDx=0;exitDy=0;entryX=0.5;entryY=0;entryDx=0;entryDy=0;" parent="1" source="OpuRK4CgrRXLhYxJ5u82-4" target="OpuRK4CgrRXLhYxJ5u82-8" edge="1">
          <mxGeometry width="50" height="50" relative="1" as="geometry">
            <mxPoint x="306" y="565" as="sourcePoint" />
            <mxPoint x="436" y="515" as="targetPoint" />
          </mxGeometry>
        </mxCell>
        <mxCell id="QXGFo84D_h4VBPx5B3l5-1" value="&lt;div&gt;1&lt;/div&gt;" style="text;html=1;strokeColor=none;fillColor=none;align=left;verticalAlign=middle;whiteSpace=wrap;rounded=0;fontColor=#ff0000;" parent="1" vertex="1">
          <mxGeometry x="349" y="575" width="19" height="14" as="geometry" />
        </mxCell>
        <mxCell id="QXGFo84D_h4VBPx5B3l5-2" value="&lt;div&gt;N&lt;/div&gt;" style="text;html=1;strokeColor=none;fillColor=none;align=left;verticalAlign=middle;whiteSpace=wrap;rounded=0;fontColor=#ff0000;" parent="1" vertex="1">
          <mxGeometry x="466" y="575" width="13" height="16" as="geometry" />
        </mxCell>
        <mxCell id="QXGFo84D_h4VBPx5B3l5-3" value="" style="endArrow=none;html=1;rounded=0;exitX=1;exitY=0.5;exitDx=0;exitDy=0;entryX=0;entryY=0.5;entryDx=0;entryDy=0;" parent="1" edge="1">
          <mxGeometry width="50" height="50" relative="1" as="geometry">
            <mxPoint x="451" y="597" as="sourcePoint" />
            <mxPoint x="486" y="597" as="targetPoint" />
          </mxGeometry>
        </mxCell>
      </root>
    </mxGraphModel>
  </diagram>
  <diagram id="lR-KPH-bCipEC0YCnFHx" name="employee entity">
    <mxGraphModel dx="1450" dy="1002" grid="0" gridSize="10" guides="1" tooltips="1" connect="1" arrows="1" fold="1" page="0" pageScale="1" pageWidth="827" pageHeight="1169" math="0" shadow="0">
      <root>
        <mxCell id="0" />
        <mxCell id="1" parent="0" />
        <mxCell id="7R-qjqrnuDjPA_agwb0c-1" value="&lt;div&gt;We store each EMPLOYEE&#39;s social security number (SSN), address, salary, sex, and birthdate.&lt;/div&gt;&lt;div&gt;Each employee works for one department but may work on several projects.&lt;/div&gt;&lt;div&gt;We keep track of the number of hours per week that an employee currently works on each project.&lt;/div&gt;&lt;div&gt;We also keep track of the direct supervisor of each employee.&lt;/div&gt;&lt;div&gt;&lt;br&gt;&lt;/div&gt;" style="text;html=1;strokeColor=none;fillColor=none;align=left;verticalAlign=middle;whiteSpace=wrap;rounded=0;" parent="1" vertex="1">
          <mxGeometry x="15" y="-26" width="535" height="78" as="geometry" />
        </mxCell>
        <mxCell id="9_z5_EZtMpjdTrr_VzWe-4" value="employee" style="whiteSpace=wrap;html=1;align=center;" parent="1" vertex="1">
          <mxGeometry x="271" y="414" width="100" height="40" as="geometry" />
        </mxCell>
        <mxCell id="A9UdiTrL-pMRsOzFpppM-1" value="department" style="whiteSpace=wrap;html=1;align=center;" parent="1" vertex="1">
          <mxGeometry x="521" y="414" width="100" height="40" as="geometry" />
        </mxCell>
        <mxCell id="A9UdiTrL-pMRsOzFpppM-2" value="works_for" style="shape=rhombus;perimeter=rhombusPerimeter;whiteSpace=wrap;html=1;align=center;fontColor=#ff0000;" parent="1" vertex="1">
          <mxGeometry x="407" y="404" width="78" height="60" as="geometry" />
        </mxCell>
        <mxCell id="A9UdiTrL-pMRsOzFpppM-3" value="" style="endArrow=none;html=1;rounded=0;exitX=0;exitY=0.5;exitDx=0;exitDy=0;entryX=1;entryY=0.5;entryDx=0;entryDy=0;" parent="1" edge="1">
          <mxGeometry width="50" height="50" relative="1" as="geometry">
            <mxPoint x="521" y="433" as="sourcePoint" />
            <mxPoint x="485" y="433" as="targetPoint" />
          </mxGeometry>
        </mxCell>
        <mxCell id="A9UdiTrL-pMRsOzFpppM-4" value="" style="endArrow=none;html=1;rounded=0;exitX=1;exitY=0.5;exitDx=0;exitDy=0;entryX=0;entryY=0.5;entryDx=0;entryDy=0;" parent="1" edge="1">
          <mxGeometry width="50" height="50" relative="1" as="geometry">
            <mxPoint x="371" y="433" as="sourcePoint" />
            <mxPoint x="407" y="433" as="targetPoint" />
          </mxGeometry>
        </mxCell>
        <mxCell id="A9UdiTrL-pMRsOzFpppM-5" value="employee" style="whiteSpace=wrap;html=1;align=center;" parent="1" vertex="1">
          <mxGeometry x="201" y="92" width="100" height="40" as="geometry" />
        </mxCell>
        <mxCell id="A9UdiTrL-pMRsOzFpppM-6" value="SSN" style="ellipse;whiteSpace=wrap;html=1;align=center;fontStyle=4;" parent="1" vertex="1">
          <mxGeometry x="-39" y="172" width="60" height="40" as="geometry" />
        </mxCell>
        <mxCell id="A9UdiTrL-pMRsOzFpppM-8" value="name" style="ellipse;whiteSpace=wrap;html=1;align=center;" parent="1" vertex="1">
          <mxGeometry x="31" y="172" width="50" height="40" as="geometry" />
        </mxCell>
        <mxCell id="A9UdiTrL-pMRsOzFpppM-9" value="department_number" style="ellipse;whiteSpace=wrap;html=1;align=center;strokeColor=#264de8;fontColor=#ff0000;" parent="1" vertex="1">
          <mxGeometry x="331" y="172" width="116.5" height="40" as="geometry" />
        </mxCell>
        <mxCell id="A9UdiTrL-pMRsOzFpppM-10" value="" style="endArrow=none;html=1;rounded=0;exitX=0.5;exitY=0;exitDx=0;exitDy=0;entryX=0;entryY=1;entryDx=0;entryDy=0;" parent="1" source="A9UdiTrL-pMRsOzFpppM-6" target="A9UdiTrL-pMRsOzFpppM-5" edge="1">
          <mxGeometry width="50" height="50" relative="1" as="geometry">
            <mxPoint x="61" y="172" as="sourcePoint" />
            <mxPoint x="111" y="122" as="targetPoint" />
          </mxGeometry>
        </mxCell>
        <mxCell id="A9UdiTrL-pMRsOzFpppM-11" value="" style="endArrow=none;html=1;rounded=0;exitX=0.599;exitY=0.021;exitDx=0;exitDy=0;exitPerimeter=0;" parent="1" source="A9UdiTrL-pMRsOzFpppM-19" edge="1">
          <mxGeometry width="50" height="50" relative="1" as="geometry">
            <mxPoint x="71" y="172" as="sourcePoint" />
            <mxPoint x="241" y="132" as="targetPoint" />
          </mxGeometry>
        </mxCell>
        <mxCell id="A9UdiTrL-pMRsOzFpppM-12" value="" style="endArrow=none;html=1;rounded=0;exitX=0.5;exitY=0;exitDx=0;exitDy=0;entryX=0.188;entryY=0.981;entryDx=0;entryDy=0;entryPerimeter=0;" parent="1" source="A9UdiTrL-pMRsOzFpppM-8" target="A9UdiTrL-pMRsOzFpppM-5" edge="1">
          <mxGeometry width="50" height="50" relative="1" as="geometry">
            <mxPoint x="21" y="212" as="sourcePoint" />
            <mxPoint x="151" y="162" as="targetPoint" />
          </mxGeometry>
        </mxCell>
        <mxCell id="A9UdiTrL-pMRsOzFpppM-13" value="" style="endArrow=none;html=1;rounded=0;exitX=0;exitY=0.5;exitDx=0;exitDy=0;entryX=1;entryY=1;entryDx=0;entryDy=0;" parent="1" target="A9UdiTrL-pMRsOzFpppM-5" edge="1">
          <mxGeometry width="50" height="50" relative="1" as="geometry">
            <mxPoint x="383.5" y="137" as="sourcePoint" />
            <mxPoint x="161" y="172" as="targetPoint" />
          </mxGeometry>
        </mxCell>
        <mxCell id="A9UdiTrL-pMRsOzFpppM-14" value="" style="endArrow=none;html=1;rounded=0;entryX=0.5;entryY=0;entryDx=0;entryDy=0;" parent="1" target="A9UdiTrL-pMRsOzFpppM-9" edge="1">
          <mxGeometry width="50" height="50" relative="1" as="geometry">
            <mxPoint x="291" y="132" as="sourcePoint" />
            <mxPoint x="171" y="182" as="targetPoint" />
          </mxGeometry>
        </mxCell>
        <mxCell id="A9UdiTrL-pMRsOzFpppM-15" value="Mname" style="ellipse;whiteSpace=wrap;html=1;align=center;" parent="1" vertex="1">
          <mxGeometry x="21" y="232" width="60" height="40" as="geometry" />
        </mxCell>
        <mxCell id="A9UdiTrL-pMRsOzFpppM-16" value="Lname" style="ellipse;whiteSpace=wrap;html=1;align=center;" parent="1" vertex="1">
          <mxGeometry x="101" y="232" width="56" height="40" as="geometry" />
        </mxCell>
        <mxCell id="A9UdiTrL-pMRsOzFpppM-17" value="Fname" style="ellipse;whiteSpace=wrap;html=1;align=center;" parent="1" vertex="1">
          <mxGeometry x="-45" y="232" width="50" height="40" as="geometry" />
        </mxCell>
        <mxCell id="A9UdiTrL-pMRsOzFpppM-18" value="sex" style="ellipse;whiteSpace=wrap;html=1;align=center;" parent="1" vertex="1">
          <mxGeometry x="91" y="172" width="50" height="40" as="geometry" />
        </mxCell>
        <mxCell id="A9UdiTrL-pMRsOzFpppM-19" value="Bdate" style="ellipse;whiteSpace=wrap;html=1;align=center;" parent="1" vertex="1">
          <mxGeometry x="151" y="172" width="50" height="40" as="geometry" />
        </mxCell>
        <mxCell id="A9UdiTrL-pMRsOzFpppM-20" value="addr" style="ellipse;whiteSpace=wrap;html=1;align=center;" parent="1" vertex="1">
          <mxGeometry x="211" y="172" width="50" height="40" as="geometry" />
        </mxCell>
        <mxCell id="A9UdiTrL-pMRsOzFpppM-21" value="salary" style="ellipse;whiteSpace=wrap;html=1;align=center;" parent="1" vertex="1">
          <mxGeometry x="271" y="172" width="50" height="40" as="geometry" />
        </mxCell>
        <mxCell id="A9UdiTrL-pMRsOzFpppM-22" value="hours" style="ellipse;whiteSpace=wrap;html=1;align=center;" parent="1" vertex="1">
          <mxGeometry x="448" y="333" width="50" height="40" as="geometry" />
        </mxCell>
        <mxCell id="A9UdiTrL-pMRsOzFpppM-23" value="project_number" style="ellipse;whiteSpace=wrap;html=1;align=center;fontColor=#ff0000;" parent="1" vertex="1">
          <mxGeometry x="381" y="117" width="105" height="40" as="geometry" />
        </mxCell>
        <mxCell id="A9UdiTrL-pMRsOzFpppM-24" value="supervisor" style="ellipse;whiteSpace=wrap;html=1;align=center;fontColor=#ff0000;" parent="1" vertex="1">
          <mxGeometry x="371.5" y="62" width="70" height="40" as="geometry" />
        </mxCell>
        <mxCell id="A9UdiTrL-pMRsOzFpppM-25" value="" style="endArrow=none;html=1;rounded=0;exitX=0.602;exitY=0.044;exitDx=0;exitDy=0;entryX=0.25;entryY=1;entryDx=0;entryDy=0;exitPerimeter=0;" parent="1" source="A9UdiTrL-pMRsOzFpppM-18" target="A9UdiTrL-pMRsOzFpppM-5" edge="1">
          <mxGeometry width="50" height="50" relative="1" as="geometry">
            <mxPoint x="1" y="182" as="sourcePoint" />
            <mxPoint x="211" y="142" as="targetPoint" />
          </mxGeometry>
        </mxCell>
        <mxCell id="A9UdiTrL-pMRsOzFpppM-26" value="" style="endArrow=none;html=1;rounded=0;entryX=0.5;entryY=1;entryDx=0;entryDy=0;" parent="1" source="A9UdiTrL-pMRsOzFpppM-20" target="A9UdiTrL-pMRsOzFpppM-5" edge="1">
          <mxGeometry width="50" height="50" relative="1" as="geometry">
            <mxPoint x="11" y="192" as="sourcePoint" />
            <mxPoint x="221" y="152" as="targetPoint" />
          </mxGeometry>
        </mxCell>
        <mxCell id="A9UdiTrL-pMRsOzFpppM-27" value="" style="endArrow=none;html=1;rounded=0;exitX=0.5;exitY=0;exitDx=0;exitDy=0;entryX=0;entryY=1;entryDx=0;entryDy=0;" parent="1" source="A9UdiTrL-pMRsOzFpppM-17" target="A9UdiTrL-pMRsOzFpppM-8" edge="1">
          <mxGeometry width="50" height="50" relative="1" as="geometry">
            <mxPoint x="21" y="202" as="sourcePoint" />
            <mxPoint x="231" y="162" as="targetPoint" />
          </mxGeometry>
        </mxCell>
        <mxCell id="A9UdiTrL-pMRsOzFpppM-28" value="" style="endArrow=none;html=1;rounded=0;exitX=0.5;exitY=0;exitDx=0;exitDy=0;entryX=0.5;entryY=1;entryDx=0;entryDy=0;" parent="1" source="A9UdiTrL-pMRsOzFpppM-15" target="A9UdiTrL-pMRsOzFpppM-8" edge="1">
          <mxGeometry width="50" height="50" relative="1" as="geometry">
            <mxPoint x="31" y="212" as="sourcePoint" />
            <mxPoint x="241" y="172" as="targetPoint" />
          </mxGeometry>
        </mxCell>
        <mxCell id="A9UdiTrL-pMRsOzFpppM-29" value="" style="endArrow=none;html=1;rounded=0;exitX=1;exitY=1;exitDx=0;exitDy=0;entryX=0.5;entryY=0;entryDx=0;entryDy=0;" parent="1" source="A9UdiTrL-pMRsOzFpppM-8" target="A9UdiTrL-pMRsOzFpppM-16" edge="1">
          <mxGeometry width="50" height="50" relative="1" as="geometry">
            <mxPoint x="41" y="222" as="sourcePoint" />
            <mxPoint x="251" y="182" as="targetPoint" />
          </mxGeometry>
        </mxCell>
        <mxCell id="A9UdiTrL-pMRsOzFpppM-31" value="" style="endArrow=none;html=1;rounded=0;exitX=0.5;exitY=0;exitDx=0;exitDy=0;entryX=1;entryY=1;entryDx=0;entryDy=0;" parent="1" source="A9UdiTrL-pMRsOzFpppM-22" target="EOarbxj_lXSSN1x-p5-7-9" edge="1">
          <mxGeometry width="50" height="50" relative="1" as="geometry">
            <mxPoint x="184" y="189" as="sourcePoint" />
            <mxPoint x="394" y="149" as="targetPoint" />
          </mxGeometry>
        </mxCell>
        <mxCell id="A9UdiTrL-pMRsOzFpppM-32" value="" style="endArrow=none;html=1;rounded=0;entryX=0.75;entryY=1;entryDx=0;entryDy=0;" parent="1" target="A9UdiTrL-pMRsOzFpppM-5" edge="1">
          <mxGeometry width="50" height="50" relative="1" as="geometry">
            <mxPoint x="291" y="172" as="sourcePoint" />
            <mxPoint x="281" y="212" as="targetPoint" />
          </mxGeometry>
        </mxCell>
        <mxCell id="A9UdiTrL-pMRsOzFpppM-33" value="" style="endArrow=none;html=1;rounded=0;exitX=0;exitY=0.5;exitDx=0;exitDy=0;" parent="1" source="A9UdiTrL-pMRsOzFpppM-24" edge="1">
          <mxGeometry width="50" height="50" relative="1" as="geometry">
            <mxPoint x="411" y="112" as="sourcePoint" />
            <mxPoint x="301" y="112" as="targetPoint" />
          </mxGeometry>
        </mxCell>
        <mxCell id="EOarbxj_lXSSN1x-p5-7-7" value="employee" style="whiteSpace=wrap;html=1;align=center;" parent="1" vertex="1">
          <mxGeometry x="244" y="257" width="100" height="40" as="geometry" />
        </mxCell>
        <mxCell id="EOarbxj_lXSSN1x-p5-7-8" value="project" style="whiteSpace=wrap;html=1;align=center;" parent="1" vertex="1">
          <mxGeometry x="494" y="257" width="100" height="40" as="geometry" />
        </mxCell>
        <mxCell id="EOarbxj_lXSSN1x-p5-7-9" value="works_on" style="shape=rhombus;perimeter=rhombusPerimeter;whiteSpace=wrap;html=1;align=center;fontColor=#ff0000;" parent="1" vertex="1">
          <mxGeometry x="380" y="247" width="78" height="60" as="geometry" />
        </mxCell>
        <mxCell id="EOarbxj_lXSSN1x-p5-7-10" value="" style="endArrow=none;html=1;rounded=0;exitX=0;exitY=0.5;exitDx=0;exitDy=0;entryX=1;entryY=0.5;entryDx=0;entryDy=0;" parent="1" edge="1">
          <mxGeometry width="50" height="50" relative="1" as="geometry">
            <mxPoint x="494" y="275" as="sourcePoint" />
            <mxPoint x="458.0000000000001" y="275" as="targetPoint" />
          </mxGeometry>
        </mxCell>
        <mxCell id="EOarbxj_lXSSN1x-p5-7-11" value="" style="endArrow=none;html=1;rounded=0;exitX=1;exitY=0.5;exitDx=0;exitDy=0;" parent="1" source="EOarbxj_lXSSN1x-p5-7-7" edge="1">
          <mxGeometry width="50" height="50" relative="1" as="geometry">
            <mxPoint x="344" y="276" as="sourcePoint" />
            <mxPoint x="381" y="277" as="targetPoint" />
          </mxGeometry>
        </mxCell>
        <mxCell id="EOarbxj_lXSSN1x-p5-7-12" value="employee" style="whiteSpace=wrap;html=1;align=center;" parent="1" vertex="1">
          <mxGeometry x="-21" y="417" width="100" height="40" as="geometry" />
        </mxCell>
        <mxCell id="EOarbxj_lXSSN1x-p5-7-13" value="supersion" style="shape=rhombus;perimeter=rhombusPerimeter;whiteSpace=wrap;html=1;align=center;fontColor=#ff0000;" parent="1" vertex="1">
          <mxGeometry x="115" y="407" width="78" height="60" as="geometry" />
        </mxCell>
        <mxCell id="EOarbxj_lXSSN1x-p5-7-14" value="" style="endArrow=none;html=1;rounded=0;exitX=1;exitY=0.25;exitDx=0;exitDy=0;entryX=0;entryY=0;entryDx=0;entryDy=0;" parent="1" source="EOarbxj_lXSSN1x-p5-7-12" target="EOarbxj_lXSSN1x-p5-7-13" edge="1">
          <mxGeometry width="50" height="50" relative="1" as="geometry">
            <mxPoint x="239" y="447" as="sourcePoint" />
            <mxPoint x="203" y="447" as="targetPoint" />
          </mxGeometry>
        </mxCell>
        <mxCell id="EOarbxj_lXSSN1x-p5-7-15" value="" style="endArrow=none;html=1;rounded=0;exitX=1;exitY=0.75;exitDx=0;exitDy=0;entryX=0;entryY=1;entryDx=0;entryDy=0;" parent="1" source="EOarbxj_lXSSN1x-p5-7-12" target="EOarbxj_lXSSN1x-p5-7-13" edge="1">
          <mxGeometry width="50" height="50" relative="1" as="geometry">
            <mxPoint x="89" y="447" as="sourcePoint" />
            <mxPoint x="145" y="432" as="targetPoint" />
          </mxGeometry>
        </mxCell>
        <mxCell id="EOarbxj_lXSSN1x-p5-7-16" value="&lt;div&gt;supervisior&lt;/div&gt;" style="text;html=1;strokeColor=none;fillColor=none;align=left;verticalAlign=middle;whiteSpace=wrap;rounded=0;" parent="1" vertex="1">
          <mxGeometry x="78" y="387" width="71" height="34" as="geometry" />
        </mxCell>
        <mxCell id="EOarbxj_lXSSN1x-p5-7-17" value="&lt;div&gt;supervisee&lt;/div&gt;" style="text;html=1;strokeColor=none;fillColor=none;align=left;verticalAlign=middle;whiteSpace=wrap;rounded=0;" parent="1" vertex="1">
          <mxGeometry x="79" y="449" width="71" height="34" as="geometry" />
        </mxCell>
        <mxCell id="-5eluVF3oIVGe8glt7BV-4" value="&lt;div&gt;1&lt;/div&gt;" style="text;html=1;strokeColor=none;fillColor=none;align=left;verticalAlign=middle;whiteSpace=wrap;rounded=0;fontColor=#ff0000;" parent="1" vertex="1">
          <mxGeometry x="138" y="397" width="19" height="14" as="geometry" />
        </mxCell>
        <mxCell id="-5eluVF3oIVGe8glt7BV-5" value="&lt;div&gt;N&lt;/div&gt;" style="text;html=1;strokeColor=none;fillColor=none;align=left;verticalAlign=middle;whiteSpace=wrap;rounded=0;fontColor=#ff0000;" parent="1" vertex="1">
          <mxGeometry x="138" y="458" width="13" height="16" as="geometry" />
        </mxCell>
        <mxCell id="-5eluVF3oIVGe8glt7BV-9" value="&lt;div&gt;N&lt;/div&gt;" style="text;html=1;strokeColor=none;fillColor=none;align=left;verticalAlign=middle;whiteSpace=wrap;rounded=0;fontColor=#ff0000;" parent="1" vertex="1">
          <mxGeometry x="381" y="414" width="19" height="14" as="geometry" />
        </mxCell>
        <mxCell id="-5eluVF3oIVGe8glt7BV-10" value="&lt;div&gt;1&lt;/div&gt;" style="text;html=1;strokeColor=none;fillColor=none;align=left;verticalAlign=middle;whiteSpace=wrap;rounded=0;fontColor=#ff0000;" parent="1" vertex="1">
          <mxGeometry x="498" y="414" width="13" height="16" as="geometry" />
        </mxCell>
        <mxCell id="-5eluVF3oIVGe8glt7BV-11" value="&lt;div&gt;M&lt;/div&gt;" style="text;html=1;strokeColor=none;fillColor=none;align=left;verticalAlign=middle;whiteSpace=wrap;rounded=0;fontColor=#ff0000;" parent="1" vertex="1">
          <mxGeometry x="357" y="257" width="19" height="14" as="geometry" />
        </mxCell>
        <mxCell id="-5eluVF3oIVGe8glt7BV-12" value="&lt;div&gt;N&lt;/div&gt;" style="text;html=1;strokeColor=none;fillColor=none;align=left;verticalAlign=middle;whiteSpace=wrap;rounded=0;fontColor=#ff0000;" parent="1" vertex="1">
          <mxGeometry x="474" y="257" width="13" height="16" as="geometry" />
        </mxCell>
        <mxCell id="-5eluVF3oIVGe8glt7BV-14" value="" style="endArrow=none;html=1;rounded=0;exitX=0;exitY=0.5;exitDx=0;exitDy=0;entryX=1;entryY=0.5;entryDx=0;entryDy=0;" parent="1" edge="1">
          <mxGeometry width="50" height="50" relative="1" as="geometry">
            <mxPoint x="494" y="278" as="sourcePoint" />
            <mxPoint x="458" y="278" as="targetPoint" />
          </mxGeometry>
        </mxCell>
        <mxCell id="-5eluVF3oIVGe8glt7BV-15" value="" style="endArrow=none;html=1;rounded=0;exitX=0;exitY=0.5;exitDx=0;exitDy=0;entryX=1;entryY=0.5;entryDx=0;entryDy=0;" parent="1" edge="1">
          <mxGeometry width="50" height="50" relative="1" as="geometry">
            <mxPoint x="521" y="435.79" as="sourcePoint" />
            <mxPoint x="485" y="435.79" as="targetPoint" />
          </mxGeometry>
        </mxCell>
        <mxCell id="-5eluVF3oIVGe8glt7BV-16" value="" style="endArrow=none;html=1;rounded=0;exitX=1;exitY=0.5;exitDx=0;exitDy=0;entryX=0;entryY=0.5;entryDx=0;entryDy=0;" parent="1" edge="1">
          <mxGeometry width="50" height="50" relative="1" as="geometry">
            <mxPoint x="371" y="435.79" as="sourcePoint" />
            <mxPoint x="407" y="435.79" as="targetPoint" />
          </mxGeometry>
        </mxCell>
        <mxCell id="fR0RJOSkGVVsFtXgym4f-1" value="project_number" style="ellipse;whiteSpace=wrap;html=1;align=center;fontColor=#ff0000;" parent="1" vertex="1">
          <mxGeometry x="329" y="333" width="105" height="40" as="geometry" />
        </mxCell>
        <mxCell id="fR0RJOSkGVVsFtXgym4f-2" value="" style="endArrow=none;html=1;rounded=0;exitX=0.5;exitY=0;exitDx=0;exitDy=0;entryX=0;entryY=1;entryDx=0;entryDy=0;" parent="1" source="fR0RJOSkGVVsFtXgym4f-1" target="EOarbxj_lXSSN1x-p5-7-9" edge="1">
          <mxGeometry width="50" height="50" relative="1" as="geometry">
            <mxPoint x="483" y="343" as="sourcePoint" />
            <mxPoint x="449" y="302" as="targetPoint" />
          </mxGeometry>
        </mxCell>
      </root>
    </mxGraphModel>
  </diagram>
  <diagram id="ehjjeeijgo-tA9g0P2tf" name="dependent entity">
    <mxGraphModel dx="538" dy="309" grid="0" gridSize="10" guides="1" tooltips="1" connect="1" arrows="1" fold="1" page="0" pageScale="1" pageWidth="827" pageHeight="1169" math="0" shadow="0">
      <root>
        <mxCell id="0" />
        <mxCell id="1" parent="0" />
        <mxCell id="icgFg5XqCwWUwFmIwP6V-1" value="dependent" style="whiteSpace=wrap;html=1;align=center;" parent="1" vertex="1">
          <mxGeometry x="248.5" y="203" width="100" height="40" as="geometry" />
        </mxCell>
        <mxCell id="icgFg5XqCwWUwFmIwP6V-2" value="employee" style="ellipse;whiteSpace=wrap;html=1;align=center;fontColor=#ff0000;" parent="1" vertex="1">
          <mxGeometry x="322.5" y="293" width="80" height="40" as="geometry" />
        </mxCell>
        <mxCell id="icgFg5XqCwWUwFmIwP6V-3" value="relationship" style="ellipse;whiteSpace=wrap;html=1;align=center;" parent="1" vertex="1">
          <mxGeometry x="422.5" y="293" width="90" height="40" as="geometry" />
        </mxCell>
        <mxCell id="icgFg5XqCwWUwFmIwP6V-4" value="" style="endArrow=none;html=1;rounded=0;exitX=0.5;exitY=0;exitDx=0;exitDy=0;entryX=0;entryY=1;entryDx=0;entryDy=0;" parent="1" source="icgFg5XqCwWUwFmIwP6V-10" target="icgFg5XqCwWUwFmIwP6V-1" edge="1">
          <mxGeometry width="50" height="50" relative="1" as="geometry">
            <mxPoint x="132.5" y="293" as="sourcePoint" />
            <mxPoint x="262.5" y="243" as="targetPoint" />
          </mxGeometry>
        </mxCell>
        <mxCell id="icgFg5XqCwWUwFmIwP6V-5" value="" style="endArrow=none;html=1;rounded=0;exitX=0.5;exitY=0;exitDx=0;exitDy=0;entryX=0.25;entryY=1;entryDx=0;entryDy=0;" parent="1" source="icgFg5XqCwWUwFmIwP6V-9" target="icgFg5XqCwWUwFmIwP6V-1" edge="1">
          <mxGeometry width="50" height="50" relative="1" as="geometry">
            <mxPoint x="222.5" y="293" as="sourcePoint" />
            <mxPoint x="272.5" y="253" as="targetPoint" />
          </mxGeometry>
        </mxCell>
        <mxCell id="icgFg5XqCwWUwFmIwP6V-6" value="" style="endArrow=none;html=1;rounded=0;exitX=0.5;exitY=0;exitDx=0;exitDy=0;entryX=0.807;entryY=1.011;entryDx=0;entryDy=0;entryPerimeter=0;" parent="1" source="icgFg5XqCwWUwFmIwP6V-2" target="icgFg5XqCwWUwFmIwP6V-1" edge="1">
          <mxGeometry width="50" height="50" relative="1" as="geometry">
            <mxPoint x="172.5" y="333" as="sourcePoint" />
            <mxPoint x="302.5" y="283" as="targetPoint" />
          </mxGeometry>
        </mxCell>
        <mxCell id="icgFg5XqCwWUwFmIwP6V-7" value="" style="endArrow=none;html=1;rounded=0;exitX=1;exitY=1;exitDx=0;exitDy=0;entryX=0.5;entryY=0;entryDx=0;entryDy=0;" parent="1" source="icgFg5XqCwWUwFmIwP6V-1" target="icgFg5XqCwWUwFmIwP6V-3" edge="1">
          <mxGeometry width="50" height="50" relative="1" as="geometry">
            <mxPoint x="192.5" y="353" as="sourcePoint" />
            <mxPoint x="322.5" y="303" as="targetPoint" />
          </mxGeometry>
        </mxCell>
        <mxCell id="icgFg5XqCwWUwFmIwP6V-8" value="Bdate" style="ellipse;whiteSpace=wrap;html=1;align=center;" parent="1" vertex="1">
          <mxGeometry x="226" y="293" width="80" height="40" as="geometry" />
        </mxCell>
        <mxCell id="icgFg5XqCwWUwFmIwP6V-9" value="sex" style="ellipse;whiteSpace=wrap;html=1;align=center;" parent="1" vertex="1">
          <mxGeometry x="162.5" y="293" width="50" height="40" as="geometry" />
        </mxCell>
        <mxCell id="icgFg5XqCwWUwFmIwP6V-10" value="name" style="ellipse;whiteSpace=wrap;html=1;align=center;" parent="1" vertex="1">
          <mxGeometry x="86.5" y="293" width="60" height="40" as="geometry" />
        </mxCell>
        <mxCell id="icgFg5XqCwWUwFmIwP6V-11" value="" style="endArrow=none;html=1;rounded=0;exitX=0.5;exitY=0;exitDx=0;exitDy=0;entryX=0.615;entryY=1.034;entryDx=0;entryDy=0;entryPerimeter=0;" parent="1" source="icgFg5XqCwWUwFmIwP6V-8" target="icgFg5XqCwWUwFmIwP6V-1" edge="1">
          <mxGeometry width="50" height="50" relative="1" as="geometry">
            <mxPoint x="232.5" y="303" as="sourcePoint" />
            <mxPoint x="283.5" y="253" as="targetPoint" />
          </mxGeometry>
        </mxCell>
        <mxCell id="fRR2YOm07kFTMeV8uGXe-1" value="&lt;div&gt;Each employee may have a number of DEPENDENTs.&lt;/div&gt;&lt;div&gt;For each dependent, we keep track of their name, sex, birthdate, and relationship to the employee.&lt;/div&gt;" style="text;html=1;strokeColor=none;fillColor=none;align=left;verticalAlign=middle;whiteSpace=wrap;rounded=0;" parent="1" vertex="1">
          <mxGeometry x="93.5" y="122" width="419" height="66" as="geometry" />
        </mxCell>
        <mxCell id="lu2CIMpsjnbAS-9d1w4B-1" value="employee" style="whiteSpace=wrap;html=1;align=center;" parent="1" vertex="1">
          <mxGeometry x="103.5" y="382" width="100" height="40" as="geometry" />
        </mxCell>
        <mxCell id="lu2CIMpsjnbAS-9d1w4B-3" value="" style="endArrow=none;html=1;rounded=0;exitX=1;exitY=0.5;exitDx=0;exitDy=0;entryX=0;entryY=0.5;entryDx=0;entryDy=0;" parent="1" source="lu2CIMpsjnbAS-9d1w4B-1" edge="1" target="bXzXjqqrgt3MS8N0R7C6-7">
          <mxGeometry width="50" height="50" relative="1" as="geometry">
            <mxPoint x="363.5" y="412" as="sourcePoint" />
            <mxPoint x="239.5" y="402" as="targetPoint" />
          </mxGeometry>
        </mxCell>
        <mxCell id="wAkUn2HKCo1kve_ulw4K-1" value="&lt;div&gt;1&lt;/div&gt;" style="text;html=1;strokeColor=none;fillColor=none;align=left;verticalAlign=middle;whiteSpace=wrap;rounded=0;fontColor=#ff0000;" parent="1" vertex="1">
          <mxGeometry x="219.5" y="382" width="19" height="14" as="geometry" />
        </mxCell>
        <mxCell id="bXzXjqqrgt3MS8N0R7C6-1" value="dependent" style="shape=ext;margin=3;double=1;whiteSpace=wrap;html=1;align=center;" vertex="1" parent="1">
          <mxGeometry x="393" y="382" width="100" height="40" as="geometry" />
        </mxCell>
        <mxCell id="bXzXjqqrgt3MS8N0R7C6-3" value="" style="shape=link;html=1;rounded=0;entryX=0;entryY=0.5;entryDx=0;entryDy=0;" edge="1" parent="1" source="bXzXjqqrgt3MS8N0R7C6-7" target="bXzXjqqrgt3MS8N0R7C6-1">
          <mxGeometry relative="1" as="geometry">
            <mxPoint x="359.2500000000001" y="401.9999999999999" as="sourcePoint" />
            <mxPoint x="316" y="490" as="targetPoint" />
          </mxGeometry>
        </mxCell>
        <mxCell id="bXzXjqqrgt3MS8N0R7C6-4" value="N" style="resizable=0;html=1;whiteSpace=wrap;align=right;verticalAlign=bottom;" connectable="0" vertex="1" parent="bXzXjqqrgt3MS8N0R7C6-3">
          <mxGeometry x="1" relative="1" as="geometry">
            <mxPoint x="-13" as="offset" />
          </mxGeometry>
        </mxCell>
        <mxCell id="bXzXjqqrgt3MS8N0R7C6-7" value="denpendents_of" style="shape=rhombus;double=1;perimeter=rhombusPerimeter;whiteSpace=wrap;html=1;align=center;fontColor=#ff0000;" vertex="1" parent="1">
          <mxGeometry x="238.5" y="372" width="121.5" height="60" as="geometry" />
        </mxCell>
      </root>
    </mxGraphModel>
  </diagram>
</mxfile>
